IMDb: http://www.imdb.com/title/tt0120689/
Language : English


Screens : 
http://www.piczend.com/image/1359176232_vlcsnap-2013-01-25-21h55m26s216.png 
http://www.piczend.com/image/1359176231_vlcsnap-2013-01-25-21h55m32s17.png 
http://www.piczend.com/image/1359176235_vlcsnap-2013-01-25-21h55m36s51.png 
http://www.piczend.com/image/1359176228_vlcsnap-2013-01-25-21h55m40s93.png 
http://www.piczend.com/image/1359176235_vlcsnap-2013-01-25-21h55m43s128.png 
http://www.piczend.com/image/1359176229_vlcsnap-2013-01-25-21h55m47s163.png 
http://www.piczend.com/image/1359176235_vlcsnap-2013-01-25-21h56m01s49.png

Info :

Format                                   : MPEG-4
Format profile                           : Base Media / Version 2
Codec ID                                 : mp42
File size                                : 1.41 GiB
Duration                                 : 3h 8mn
Overall bit rate                         : 1 068 Kbps
Encoded date                             : UTC 2013-01-26 00:43:46
Tagged date                              : UTC 2013-01-26 01:19:55

Video
ID                                       : 1
Format                                   : AVC
Format/Info                              : Advanced Video Codec
Format profile                           : Main@L3.0
Format settings, CABAC                   : Yes
Format settings, ReFrames                : 1 frame
Codec ID                                 : avc1
Codec ID/Info                            : Advanced Video Coding
Duration                                 : 3h 8mn
Bit rate mode                            : Variable
Bit rate                                 : 1 001 Kbps
Width                                    : 704 pixels
Height                                   : 396 pixels
Display aspect ratio                     : 16:9
Frame rate mode                          : Variable
Frame rate                               : 23.976 fps
Minimum frame rate                       : 23.974 fps
Maximum frame rate                       : 90.000 fps
Color space                              : YUV
Chroma subsampling                       : 4:2:0
Bit depth                                : 8 bits
Scan type                                : Progressive
Bits/(Pixel*Frame)                       : 0.150
Stream size                              : 1.32 GiB (94%)
Writing library                          : x264 core
Encoded date                             : UTC 2013-01-26 00:43:46
Tagged date                              : UTC 2013-01-26 01:19:47
Color primaries                          : BT.601 NTSC
Transfer characteristics                 : BT.709
Matrix coefficients                      : BT.601

Audio
ID                                       : 2
Format                                   : MPEG Audio
Format version                           : Version 1
Format profile                           : Layer 3
Mode                                     : Joint stereo
Mode extension                           : MS Stereo
Codec ID                                 : 69
Duration                                 : 3h 8mn
Bit rate mode                            : Constant
Bit rate                                 : 64.0 Kbps
Channel(s)                               : 2 channels
Sampling rate                            : 48.0 KHz
Compression mode                         : Lossy
Stream size                              : 86.3 MiB (6%)
Writing library                          : LAME3.98.4┬¬┬¬┬¬┬¬┬¬┬¬┬┐
Encoded date                             : UTC 2013-01-26 00:43:46
Tagged date                              : UTC 2013-01-26 01:19:37
